<svg xmlns="http://www.w3.org/2000/svg" version="1.1" xmlns:xlink="http://www.w3.org/1999/xlink" xmlns:svgjs="http://svgjs.dev/svgjs" width="1500" height="1500" viewBox="0 0 1500 1500"><g transform="matrix(1,0,0,1,-0.21332335329316265,-0.21332335329350371)"><svg viewBox="0 0 334 334" data-background-color="#ffffff" preserveAspectRatio="xMidYMid meet" height="1500" width="1500" xmlns="http://www.w3.org/2000/svg" xmlns:xlink="http://www.w3.org/1999/xlink"><g id="tight-bounds" transform="matrix(1,0,0,1,0.04749999999998522,0.04750000000001364)"><svg viewBox="0 0 333.90454557049503 333.90454557049503" height="333.90454557049503" width="333.90454557049503"><g><svg></svg></g><g><svg viewBox="0 0 333.90454557049503 333.90454557049503" height="333.90454557049503" width="333.90454557049503"><g><path d="M0 166.952c0-92.205 74.747-166.952 166.952-166.952 92.205 0 166.952 74.747 166.953 166.952 0 92.205-74.747 166.952-166.953 166.953-92.205 0-166.952-74.747-166.952-166.953zM166.952 323.704c86.572 0 156.752-70.18 156.752-156.752 0-86.572-70.18-156.752-156.752-156.752-86.572 0-156.752 70.18-156.752 156.752 0 86.572 70.18 156.752 156.752 156.752z" data-fill-palette-color="tertiary" fill="#ed2647" stroke="transparent"></path><ellipse rx="160.27418187383762" ry="160.27418187383762" cx="166.95227278524752" cy="166.95227278524752" fill="#ed2647" stroke="transparent" stroke-width="0" fill-opacity="1" data-fill-palette-color="tertiary"></ellipse></g><g transform="matrix(1,0,0,1,125.08627895245502,71.17305217166896)"><svg viewBox="0 0 83.731987665585 191.55844122715712" height="191.55844122715712" width="83.731987665585"><g><svg viewBox="0 0 83.731987665585 191.55844122715712" height="191.55844122715712" width="83.731987665585"><g><svg viewBox="0 0 141.80668938555542 324.4192468327792" height="191.55844122715712" width="83.731987665585"><g transform="matrix(1,0,0,1,0,132.8608056056221)"><svg viewBox="0 0 141.80668938555542 191.55844122715712" height="191.55844122715712" width="141.80668938555542"><g id="textblocktransform"><svg viewBox="0 0 141.80668938555542 191.55844122715712" height="191.55844122715712" width="141.80668938555542" id="textblock"><g><svg viewBox="0 0 141.80668938555542 191.55844122715712" height="191.55844122715712" width="141.80668938555542"><g transform="matrix(1,0,0,1,0,0)"><svg width="141.80668938555542" viewBox="3.2696990814879996 -35.94 27.540300918512 37.209999999999994" height="191.55844122715712" data-palette-color="#ffffff"><path d="M24.98-20.26L24.98-20.26Q24.88-19.92 24.61-19.3 24.34-18.68 23.99-17.9 23.63-17.11 23.23-16.22 22.83-15.33 22.44-14.43L22.44-14.43Q22.29-14.09 22.17-13.93 22.05-13.77 21.78-13.7 21.51-13.62 21.03-13.61 20.56-13.6 19.7-13.57L19.7-13.57 16.31-13.5 15.63-6.03 28.15-6.03 28.15-5.08Q28.1-5.03 27.73-4.43 27.37-3.83 26.88-3 26.39-2.17 25.85-1.33 25.32-0.49 24.95 0.02L24.95 0.02Q24.71 0.46 24.39 0.72 24.07 0.98 23.69 1.1 23.32 1.22 22.86 1.25 22.41 1.27 21.88 1.27L21.88 1.27Q19.68 1.27 17.3 1.17 14.92 1.07 12.55 0.93 10.18 0.78 7.92 0.6 5.66 0.42 3.74 0.22L3.74 0.22Q3.56 0.2 3.43 0.02 3.3-0.15 3.3-0.37L3.3-0.37Q3.2-0.37 3.43-0.78 3.66-1.2 4.08-1.86 4.49-2.51 4.99-3.36 5.49-4.2 5.96-5.05L5.96-5.05 6.35-10.55Q6.45-11.94 6.51-12.62 6.57-13.31 6.57-13.35L6.57-13.35Q5.1-13.38 4.38-13.5 3.66-13.62 3.66-14.04L3.66-14.04Q3.66-14.23 4.02-14.77 4.37-15.31 4.88-16 5.4-16.7 5.97-17.46 6.54-18.21 6.98-18.85L6.98-18.85 7.59-27.15 7.52-27.15Q6.98-27.12 6.54-27.11 6.1-27.1 5.74-27.1L5.74-27.1Q4.57-27.1 4.06-27.23 3.56-27.37 3.56-27.73L3.56-27.73Q3.56-27.91 3.86-28.44 4.15-28.98 4.59-29.68 5.03-30.37 5.52-31.14 6.01-31.91 6.4-32.57L6.4-32.57 7.86-35.06 18.07-35.06 30.1-35.94Q30.13-35.94 30.24-35.93 30.35-35.91 30.47-35.85 30.59-35.79 30.7-35.64 30.81-35.5 30.81-35.23L30.81-35.23 30.44-33.96Q30.27-33.42 30.03-32.82 29.79-32.23 29.49-31.59L29.49-31.59 28.42-28.76Q28.25-28.34 28.03-28.13 27.81-27.91 27.1-27.88L27.1-27.88Q25.24-27.83 22.96-27.72 20.68-27.61 17.72-27.51L17.72-27.51Q17.63-27.17 17.63-26.97 17.63-26.76 17.58-26.17L17.58-26.17 17.46-25.05Q17.41-24.27 17.31-23.36 17.21-22.46 17.07-21.14L17.07-21.14Q18.31-21.19 19.49-21.24 20.68-21.29 21.66-21.33 22.63-21.36 23.35-21.39 24.07-21.41 24.37-21.41L24.37-21.41Q24.56-21.41 24.8-21.26 25.05-21.12 25.05-20.7L25.05-20.7Q25.05-20.51 24.98-20.26Z" opacity="1" transform="matrix(1,0,0,1,0,0)" fill="#ffffff" class="wordmark-text-0" data-fill-palette-color="quaternary" id="text-0"></path></svg></g></svg></g></svg></g></svg></g><g transform="matrix(1,0,0,1,27.085077672641084,0)"><svg viewBox="0 0 87.63653404027325 87.63845503447975" height="87.63845503447975" width="87.63653404027325"><g><svg xmlns="http://www.w3.org/2000/svg" xmlns:xlink="http://www.w3.org/1999/xlink" version="1.1" x="0" y="0" viewBox="4.946186878690515 4.945573993048912 90.1074508502092 90.1094260069511" enable-background="new 0 0 100 100" xml:space="preserve" height="87.63845503447975" width="87.63653404027325" class="icon-icon-0" data-fill-palette-color="quaternary" id="icon-0"><path d="M93.018 6.982c-4.868-4.87-16.123-0.568-28.962 8.261C59.712 13.48 54.969 12.5 50 12.5c-20.678 0-37.5 16.822-37.5 37.5 0 4.969 0.98 9.712 2.743 14.056C6.415 76.894 2.113 88.148 6.982 93.018c1.394 1.395 3.312 2.037 5.64 2.037 5.803 0 14.159-3.999 23.321-10.298C40.288 86.52 45.03 87.5 50 87.5c20.678 0 37.5-16.822 37.5-37.5 0-4.969-0.98-9.712-2.743-14.056C93.584 23.106 97.887 11.852 93.018 6.982zM63.597 45.655c-1.358-0.269-2.671 0.608-2.942 1.961l-2.5 12.5c0 0.002 0 0.004 0 0.005-0.036 0.184-0.046 0.371-0.041 0.557 0.002 0.057 0.011 0.111 0.016 0.168 0.013 0.131 0.034 0.26 0.068 0.389 0.016 0.06 0.032 0.118 0.052 0.176 0.043 0.127 0.099 0.249 0.163 0.368 0.026 0.048 0.047 0.097 0.075 0.143 0.099 0.159 0.213 0.312 0.351 0.451 0.119 0.119 0.249 0.224 0.386 0.316 0.097 0.065 0.201 0.112 0.304 0.162 0.043 0.021 0.083 0.049 0.128 0.067 0.115 0.047 0.234 0.077 0.353 0.107 0.038 0.009 0.074 0.026 0.113 0.033 0.16 0.031 0.321 0.048 0.483 0.048 0.162 0 0.324-0.016 0.484-0.048 0.002 0 0.004 0 0.006-0.001l12.5-2.5c1.354-0.271 2.232-1.588 1.961-2.942-0.271-1.354-1.585-2.229-2.942-1.961l-4.658 0.932c4.835-5.19 9.337-10.518 13.233-15.697C82.037 43.782 82.5 46.837 82.5 50c0 17.92-14.58 32.5-32.5 32.5-12.67 0-23.662-7.292-29.02-17.896 3.792-5.283 8.553-11.138 14.286-17.319l-0.824 4.118c-0.271 1.354 0.607 2.671 1.961 2.942 0.166 0.033 0.331 0.049 0.493 0.049 1.167 0 2.211-0.822 2.449-2.01l2.5-12.5c0-0.002 0-0.004 0-0.005 0.036-0.184 0.046-0.371 0.041-0.557-0.002-0.057-0.011-0.111-0.016-0.168-0.013-0.131-0.034-0.26-0.068-0.389-0.016-0.06-0.032-0.118-0.052-0.176-0.043-0.127-0.099-0.249-0.163-0.368-0.026-0.048-0.047-0.097-0.075-0.143-0.099-0.159-0.213-0.312-0.351-0.451-0.139-0.139-0.292-0.253-0.452-0.352-0.044-0.027-0.091-0.048-0.137-0.072-0.123-0.066-0.248-0.123-0.378-0.167-0.054-0.018-0.108-0.034-0.164-0.049-0.135-0.035-0.27-0.058-0.408-0.071-0.05-0.005-0.099-0.013-0.15-0.014-0.189-0.006-0.377 0.004-0.563 0.04-0.002 0-0.004 0-0.005 0l-12.5 2.5c-1.354 0.271-2.232 1.588-1.961 2.942 0.271 1.354 1.585 2.23 2.942 1.961l4.658-0.932c-4.835 5.19-9.337 10.518-13.233 15.697C17.963 56.218 17.5 53.163 17.5 50c0-17.92 14.58-32.5 32.5-32.5 12.67 0 23.662 7.292 29.02 17.896-3.792 5.283-8.553 11.138-14.286 17.319l0.824-4.118C65.829 47.243 64.951 45.926 63.597 45.655zM10.518 89.482c-2.055-2.055 0.37-9.65 7.297-20.263 3.186 5.316 7.65 9.78 12.966 12.966C20.169 89.113 12.575 91.537 10.518 89.482zM82.185 30.781c-3.186-5.315-7.65-9.779-12.965-12.965 10.613-6.927 18.206-9.351 20.262-7.298C91.538 12.573 89.113 20.167 82.185 30.781z" fill="#ffffff" data-fill-palette-color="quaternary"></path></svg></g></svg></g><g></g></svg></g></svg></g></svg></g></svg></g><defs></defs></svg><rect width="333.90454557049503" height="333.90454557049503" fill="none" stroke="none" visibility="hidden"></rect></g></svg></g></svg>